# xmcd
#
# Track frame offsets: 
#        150
#        22473
#        43980
#        59290
#        72665
#        89170
#        109133
#        132178
#        145320
#        160328
#        179825
#        199548
#
# Disc length: 2838 seconds
#
# Revision: 12
# Processed by: cddbd v1.5.2PL0 Copyright (c) Steve Scherf et al.
# Submitted via: ExactAudioCopyFreeDBPlugin 1.0
#
DISCID=c50b140c
DTITLE=Blind Boys of Alabama - Spirit of the Century
DYEAR=2001
DGENRE=Gospel
TTITLE0=Jesus Gonna Be Here
TTITLE1=No More
TTITLE2=Run on for a Long Time
TTITLE3=Good Religion
TTITLE4=Give a Man a Home
TTITLE5=Amazing Grace
TTITLE6=Soldier
TTITLE7=Nobody's Fault but Mine
TTITLE8=Way Down in the Hole
TTITLE9=Motherless Child
TTITLE10=Just Wanna See His Face
TTITLE11=The Last Time
EXTD=Real World Records LTD.\nClarence Fountain,Jimmy Carter, George S
EXTD=cott, Joey Williams: vocal\nJohn Hammond, dobro\nMichael Jerome, 
EXTD=drums\nDavid Lindley, guitar\nCharlie Musselwhite, harmonica\nDan
EXTD=ny Thompson, bass\nDavid Lind YEAR: 2001 ID3G: 38
EXTT0=
EXTT1=
EXTT2=
EXTT3=
EXTT4=
EXTT5=
EXTT6=
EXTT7=
EXTT8=
EXTT9=
EXTT10=
EXTT11=
PLAYORDER=
